<svg width="414" height="896" viewBox="0 0 414 896" fill="none" xmlns="http://www.w3.org/2000/svg">
<rect width="414" height="896" fill="white"/>
<path d="M106.729 106.24C111.337 106.24 113.521 103.936 113.521 101.248C113.521 95.08 103.561 97.408 103.561 93.832C103.561 92.56 104.617 91.552 107.209 91.552C108.673 91.552 110.329 91.984 111.841 92.872L112.825 90.448C111.361 89.488 109.249 88.96 107.233 88.96C102.625 88.96 100.465 91.264 100.465 93.976C100.465 100.216 110.449 97.84 110.449 101.464C110.449 102.712 109.345 103.648 106.729 103.648C104.665 103.648 102.529 102.88 101.185 101.8L100.105 104.224C101.497 105.424 104.113 106.24 106.729 106.24ZM127.895 99.664C127.895 95.656 125.159 93.04 121.415 93.04C117.599 93.04 114.791 95.776 114.791 99.592C114.791 103.408 117.575 106.168 121.871 106.168C124.079 106.168 125.879 105.448 127.031 104.08L125.423 102.232C124.511 103.168 123.383 103.624 121.943 103.624C119.711 103.624 118.151 102.424 117.791 100.552H127.847C127.871 100.264 127.895 99.904 127.895 99.664ZM121.415 95.44C123.383 95.44 124.799 96.712 125.039 98.56H117.767C118.055 96.688 119.471 95.44 121.415 95.44ZM130.297 106H133.297V88.192H130.297V106ZM148.802 99.664C148.802 95.656 146.066 93.04 142.322 93.04C138.506 93.04 135.698 95.776 135.698 99.592C135.698 103.408 138.482 106.168 142.778 106.168C144.986 106.168 146.786 105.448 147.938 104.08L146.33 102.232C145.418 103.168 144.29 103.624 142.85 103.624C140.618 103.624 139.058 102.424 138.698 100.552H148.754C148.778 100.264 148.802 99.904 148.802 99.664ZM142.322 95.44C144.29 95.44 145.706 96.712 145.946 98.56H138.674C138.962 96.688 140.378 95.44 142.322 95.44ZM157.084 106.168C159.58 106.168 161.572 105.088 162.556 103.168L160.252 101.824C159.484 103.048 158.332 103.6 157.06 103.6C154.852 103.6 153.172 102.088 153.172 99.592C153.172 97.12 154.852 95.584 157.06 95.584C158.332 95.584 159.484 96.136 160.252 97.36L162.556 96.016C161.572 94.072 159.58 93.04 157.084 93.04C153.028 93.04 150.148 95.752 150.148 99.592C150.148 103.432 153.028 106.168 157.084 106.168ZM171.697 103.168C171.241 103.528 170.641 103.696 170.017 103.696C168.865 103.696 168.241 103.024 168.241 101.776V95.68H171.673V93.28H168.241V90.352H165.241V93.28H163.129V95.68H165.241V101.848C165.241 104.68 166.849 106.168 169.657 106.168C170.737 106.168 171.817 105.88 172.537 105.304L171.697 103.168ZM184.086 103.384V98.752H192.198V96.184H184.086V91.816H193.23V89.2H180.966V106H193.566V103.384H184.086ZM196.276 106H199.276V88.192H196.276V106ZM214.782 99.664C214.782 95.656 212.046 93.04 208.302 93.04C204.486 93.04 201.678 95.776 201.678 99.592C201.678 103.408 204.462 106.168 208.758 106.168C210.966 106.168 212.766 105.448 213.918 104.08L212.31 102.232C211.398 103.168 210.27 103.624 208.83 103.624C206.598 103.624 205.038 102.424 204.678 100.552H214.734C214.758 100.264 214.782 99.904 214.782 99.664ZM208.302 95.44C210.27 95.44 211.686 96.712 211.926 98.56H204.654C204.942 96.688 206.358 95.44 208.302 95.44ZM223.063 106.168C225.559 106.168 227.551 105.088 228.535 103.168L226.231 101.824C225.463 103.048 224.311 103.6 223.039 103.6C220.831 103.6 219.151 102.088 219.151 99.592C219.151 97.12 220.831 95.584 223.039 95.584C224.311 95.584 225.463 96.136 226.231 97.36L228.535 96.016C227.551 94.072 225.559 93.04 223.063 93.04C219.007 93.04 216.127 95.752 216.127 99.592C216.127 103.432 219.007 106.168 223.063 106.168ZM237.677 103.168C237.221 103.528 236.621 103.696 235.997 103.696C234.845 103.696 234.221 103.024 234.221 101.776V95.68H237.653V93.28H234.221V90.352H231.221V93.28H229.109V95.68H231.221V101.848C231.221 104.68 232.829 106.168 235.637 106.168C236.717 106.168 237.797 105.88 238.517 105.304L237.677 103.168ZM243.361 95.056V93.184H240.505V106H243.505V99.784C243.505 97.168 244.945 95.824 247.225 95.824C247.441 95.824 247.657 95.848 247.921 95.896V93.04C245.785 93.04 244.225 93.712 243.361 95.056ZM251.497 91.072C252.625 91.072 253.417 90.256 253.417 89.2C253.417 88.216 252.601 87.472 251.497 87.472C250.393 87.472 249.577 88.264 249.577 89.272C249.577 90.28 250.393 91.072 251.497 91.072ZM249.985 106H252.985V93.184H249.985V106ZM262.323 106.168C264.819 106.168 266.811 105.088 267.795 103.168L265.491 101.824C264.723 103.048 263.571 103.6 262.299 103.6C260.091 103.6 258.411 102.088 258.411 99.592C258.411 97.12 260.091 95.584 262.299 95.584C263.571 95.584 264.723 96.136 265.491 97.36L267.795 96.016C266.811 94.072 264.819 93.04 262.323 93.04C258.267 93.04 255.387 95.752 255.387 99.592C255.387 103.432 258.267 106.168 262.323 106.168ZM281.941 106.168C284.437 106.168 286.429 105.088 287.413 103.168L285.109 101.824C284.341 103.048 283.189 103.6 281.917 103.6C279.709 103.6 278.029 102.088 278.029 99.592C278.029 97.12 279.709 95.584 281.917 95.584C283.189 95.584 284.341 96.136 285.109 97.36L287.413 96.016C286.429 94.072 284.437 93.04 281.941 93.04C277.885 93.04 275.005 95.752 275.005 99.592C275.005 103.432 277.885 106.168 281.941 106.168ZM294.422 93.04C292.358 93.04 290.366 93.568 288.998 94.624L290.174 96.808C291.134 96.016 292.622 95.536 294.062 95.536C296.198 95.536 297.254 96.568 297.254 98.32V98.512H293.942C290.054 98.512 288.614 100.192 288.614 102.328C288.614 104.56 290.462 106.168 293.39 106.168C295.31 106.168 296.702 105.544 297.422 104.44V106H300.254V98.488C300.254 94.792 298.118 93.04 294.422 93.04ZM294.014 103.984C292.478 103.984 291.566 103.288 291.566 102.208C291.566 101.272 292.118 100.504 294.158 100.504H297.254V101.992C296.75 103.312 295.478 103.984 294.014 103.984ZM306.481 95.056V93.184H303.625V106H306.625V99.784C306.625 97.168 308.065 95.824 310.345 95.824C310.561 95.824 310.777 95.848 311.041 95.896V93.04C308.905 93.04 307.345 93.712 306.481 95.056ZM110.975 135.168C113.471 135.168 115.463 134.088 116.447 132.168L114.143 130.824C113.375 132.048 112.223 132.6 110.951 132.6C108.743 132.6 107.063 131.088 107.063 128.592C107.063 126.12 108.743 124.584 110.951 124.584C112.223 124.584 113.375 125.136 114.143 126.36L116.447 125.016C115.463 123.072 113.471 122.04 110.975 122.04C106.919 122.04 104.039 124.752 104.039 128.592C104.039 132.432 106.919 135.168 110.975 135.168ZM125.715 122.04C123.939 122.04 122.427 122.616 121.443 123.672V117.192H118.443V135H121.443V128.52C121.443 125.952 122.883 124.656 125.019 124.656C126.939 124.656 128.067 125.76 128.067 128.04V135H131.067V127.656C131.067 123.792 128.787 122.04 125.715 122.04ZM139.289 122.04C137.225 122.04 135.233 122.568 133.865 123.624L135.041 125.808C136.001 125.016 137.489 124.536 138.929 124.536C141.065 124.536 142.121 125.568 142.121 127.32V127.512H138.809C134.921 127.512 133.481 129.192 133.481 131.328C133.481 133.56 135.329 135.168 138.257 135.168C140.177 135.168 141.569 134.544 142.289 133.44V135H145.121V127.488C145.121 123.792 142.985 122.04 139.289 122.04ZM138.881 132.984C137.345 132.984 136.433 132.288 136.433 131.208C136.433 130.272 136.985 129.504 139.025 129.504H142.121V130.992C141.617 132.312 140.345 132.984 138.881 132.984ZM151.347 124.056V122.184H148.491V135H151.491V128.784C151.491 126.168 152.931 124.824 155.211 124.824C155.427 124.824 155.643 124.848 155.907 124.896V122.04C153.771 122.04 152.211 122.712 151.347 124.056ZM167.719 122.184V123.888C166.663 122.616 165.079 122.04 163.279 122.04C159.607 122.04 156.799 124.488 156.799 128.208C156.799 131.928 159.607 134.424 163.279 134.424C165.007 134.424 166.519 133.872 167.575 132.72V133.392C167.575 135.984 166.327 137.28 163.495 137.28C161.719 137.28 159.895 136.68 158.767 135.744L157.423 138C158.887 139.2 161.263 139.824 163.663 139.824C168.151 139.824 170.575 137.712 170.575 133.056V122.184H167.719ZM163.735 131.88C161.455 131.88 159.823 130.392 159.823 128.208C159.823 126.048 161.455 124.584 163.735 124.584C165.991 124.584 167.623 126.048 167.623 128.208C167.623 130.392 165.991 131.88 163.735 131.88ZM175.551 120.072C176.679 120.072 177.471 119.256 177.471 118.2C177.471 117.216 176.655 116.472 175.551 116.472C174.447 116.472 173.631 117.264 173.631 118.272C173.631 119.28 174.447 120.072 175.551 120.072ZM174.039 135H177.039V122.184H174.039V135ZM187.769 122.04C185.897 122.04 184.337 122.664 183.353 123.84V122.184H180.497V135H183.497V128.52C183.497 125.952 184.937 124.656 187.073 124.656C188.993 124.656 190.121 125.76 190.121 128.04V135H193.121V127.656C193.121 123.792 190.841 122.04 187.769 122.04ZM206.427 122.184V123.888C205.371 122.616 203.787 122.04 201.987 122.04C198.315 122.04 195.507 124.488 195.507 128.208C195.507 131.928 198.315 134.424 201.987 134.424C203.715 134.424 205.227 133.872 206.283 132.72V133.392C206.283 135.984 205.035 137.28 202.203 137.28C200.427 137.28 198.603 136.68 197.475 135.744L196.131 138C197.595 139.2 199.971 139.824 202.371 139.824C206.859 139.824 209.283 137.712 209.283 133.056V122.184H206.427ZM202.443 131.88C200.163 131.88 198.531 130.392 198.531 128.208C198.531 126.048 200.163 124.584 202.443 124.584C204.699 124.584 206.331 126.048 206.331 128.208C206.331 130.392 204.699 131.88 202.443 131.88ZM222.86 135.168C226.46 135.168 228.668 133.608 228.668 131.208C228.668 126.192 220.748 128.496 220.748 125.904C220.748 125.064 221.612 124.464 223.436 124.464C224.66 124.464 225.884 124.704 227.108 125.424L228.26 123.144C227.108 122.448 225.164 122.04 223.46 122.04C220.004 122.04 217.82 123.624 217.82 126.048C217.82 131.16 225.74 128.856 225.74 131.304C225.74 132.192 224.948 132.72 223.052 132.72C221.444 132.72 219.716 132.192 218.588 131.448L217.436 133.728C218.588 134.544 220.724 135.168 222.86 135.168ZM236.532 135.168C240.516 135.168 243.372 132.432 243.372 128.592C243.372 124.752 240.516 122.04 236.532 122.04C232.596 122.04 229.716 124.752 229.716 128.592C229.716 132.432 232.596 135.168 236.532 135.168ZM236.532 132.6C234.372 132.6 232.74 131.04 232.74 128.592C232.74 126.144 234.372 124.584 236.532 124.584C238.716 124.584 240.348 126.144 240.348 128.592C240.348 131.04 238.716 132.6 236.532 132.6ZM251.641 135.168C254.137 135.168 256.129 134.088 257.113 132.168L254.809 130.824C254.041 132.048 252.889 132.6 251.617 132.6C249.409 132.6 247.729 131.088 247.729 128.592C247.729 126.12 249.409 124.584 251.617 124.584C252.889 124.584 254.041 125.136 254.809 126.36L257.113 125.016C256.129 123.072 254.137 122.04 251.641 122.04C247.585 122.04 244.705 124.752 244.705 128.592C244.705 132.432 247.585 135.168 251.641 135.168ZM268.781 135H272.429L266.573 127.56L271.925 122.184H268.325L262.109 127.944V117.192H259.109V135H262.109V131.616L264.341 129.504L268.781 135ZM285.396 128.664C285.396 124.656 282.66 122.04 278.916 122.04C275.1 122.04 272.292 124.776 272.292 128.592C272.292 132.408 275.076 135.168 279.372 135.168C281.58 135.168 283.38 134.448 284.532 133.08L282.924 131.232C282.012 132.168 280.884 132.624 279.444 132.624C277.212 132.624 275.652 131.424 275.292 129.552H285.348C285.372 129.264 285.396 128.904 285.396 128.664ZM278.916 124.44C280.884 124.44 282.3 125.712 282.54 127.56H275.268C275.556 125.688 276.972 124.44 278.916 124.44ZM294.661 132.168C294.205 132.528 293.605 132.696 292.981 132.696C291.829 132.696 291.205 132.024 291.205 130.776V124.68H294.637V122.28H291.205V119.352H288.205V122.28H286.093V124.68H288.205V130.848C288.205 133.68 289.813 135.168 292.621 135.168C293.701 135.168 294.781 134.88 295.501 134.304L294.661 132.168ZM301.449 135.168C305.049 135.168 307.257 133.608 307.257 131.208C307.257 126.192 299.337 128.496 299.337 125.904C299.337 125.064 300.201 124.464 302.025 124.464C303.249 124.464 304.473 124.704 305.697 125.424L306.849 123.144C305.697 122.448 303.753 122.04 302.049 122.04C298.593 122.04 296.409 123.624 296.409 126.048C296.409 131.16 304.329 128.856 304.329 131.304C304.329 132.192 303.537 132.72 301.641 132.72C300.033 132.72 298.305 132.192 297.177 131.448L296.025 133.728C297.177 134.544 299.313 135.168 301.449 135.168Z" fill="#2F2D65"/>
<path d="M121.539 323.491L114.194 309.551L130.137 293.608L144.661 300.703C161.793 288.391 182.786 281.15 205.49 281.15C228.257 281.15 249.333 288.433 266.487 300.829L280.864 293.608L296.807 309.551L289.295 323.324C302.316 340.728 309.829 362.096 309.829 385.51C309.829 443.146 263.106 489.89 205.449 489.89C147.791 489.89 101.131 443.146 101.131 385.51C101.131 362.284 108.727 340.832 121.539 323.491Z" fill="white" fill-opacity="0.6" stroke="#5D5D83" stroke-width="4" stroke-miterlimit="10"/>
<path d="M255.342 411.553C268.988 411.553 280.049 400.492 280.049 386.846C280.049 373.201 268.988 362.139 255.342 362.139C241.697 362.139 230.635 373.201 230.635 386.846C230.635 400.492 241.697 411.553 255.342 411.553Z" stroke="#5D5D83" stroke-width="4" stroke-miterlimit="10"/>
<path d="M157.266 411.553C170.911 411.553 181.973 400.492 181.973 386.846C181.973 373.201 170.911 362.139 157.266 362.139C143.62 362.139 132.559 373.201 132.559 386.846C132.559 400.492 143.62 411.553 157.266 411.553Z" stroke="#5D5D83" stroke-width="4" stroke-miterlimit="10"/>
<path d="M205.511 348.951C218.891 348.951 229.738 338.104 229.738 324.724C229.738 311.343 218.891 300.496 205.511 300.496C192.13 300.496 181.283 311.343 181.283 324.724C181.283 338.104 192.13 348.951 205.511 348.951Z" stroke="#5D5D83" stroke-width="4" stroke-miterlimit="10"/>
<path d="M205.511 315.25C209.499 315.25 212.731 312.017 212.731 308.03C212.731 304.042 209.499 300.81 205.511 300.81C201.524 300.81 198.291 304.042 198.291 308.03C198.291 312.017 201.524 315.25 205.511 315.25Z" stroke="#5D5D83" stroke-width="4" stroke-miterlimit="10"/>
<path d="M205.511 348.93C209.499 348.93 212.731 345.697 212.731 341.709C212.731 337.722 209.499 334.489 205.511 334.489C201.524 334.489 198.291 337.722 198.291 341.709C198.291 345.697 201.524 348.93 205.511 348.93Z" stroke="#5D5D83" stroke-width="4" stroke-miterlimit="10"/>
<path d="M222.351 332.089C226.339 332.089 229.571 328.856 229.571 324.869C229.571 320.881 226.339 317.648 222.351 317.648C218.363 317.648 215.131 320.881 215.131 324.869C215.131 328.856 218.363 332.089 222.351 332.089Z" stroke="#5D5D83" stroke-width="4" stroke-miterlimit="10"/>
<path d="M188.65 332.089C192.638 332.089 195.87 328.856 195.87 324.869C195.87 320.881 192.638 317.648 188.65 317.648C184.662 317.648 181.43 320.881 181.43 324.869C181.43 328.856 184.662 332.089 188.65 332.089Z" stroke="#5D5D83" stroke-width="4" stroke-miterlimit="10"/>
<path d="M205.511 470.191C218.891 470.191 229.738 459.344 229.738 445.964C229.738 432.583 218.891 421.736 205.511 421.736C192.13 421.736 181.283 432.583 181.283 445.964C181.283 459.344 192.13 470.191 205.511 470.191Z" stroke="#5D5D83" stroke-width="4" stroke-miterlimit="10"/>
<path d="M205.511 436.49C209.499 436.49 212.731 433.258 212.731 429.27C212.731 425.282 209.499 422.05 205.511 422.05C201.524 422.05 198.291 425.282 198.291 429.27C198.291 433.258 201.524 436.49 205.511 436.49Z" stroke="#5D5D83" stroke-width="4" stroke-miterlimit="10"/>
<path d="M205.511 470.17C209.499 470.17 212.731 466.937 212.731 462.95C212.731 458.962 209.499 455.729 205.511 455.729C201.524 455.729 198.291 458.962 198.291 462.95C198.291 466.937 201.524 470.17 205.511 470.17Z" stroke="#5D5D83" stroke-width="4" stroke-miterlimit="10"/>
<path d="M222.351 453.329C226.339 453.329 229.571 450.097 229.571 446.109C229.571 442.121 226.339 438.889 222.351 438.889C218.363 438.889 215.131 442.121 215.131 446.109C215.131 450.097 218.363 453.329 222.351 453.329Z" stroke="#5D5D83" stroke-width="4" stroke-miterlimit="10"/>
<path d="M188.65 453.329C192.638 453.329 195.87 450.097 195.87 446.109C195.87 442.121 192.638 438.889 188.65 438.889C184.662 438.889 181.43 442.121 181.43 446.109C181.43 450.097 184.662 453.329 188.65 453.329Z" stroke="#5D5D83" stroke-width="4" stroke-miterlimit="10"/>
<path d="M127.265 550.36C131.405 550.36 134.933 548.884 137.273 546.148L134.249 543.268C132.413 545.284 130.145 546.256 127.517 546.256C122.297 546.256 118.517 542.584 118.517 537.4C118.517 532.216 122.297 528.544 127.517 528.544C130.145 528.544 132.413 529.516 134.249 531.496L137.273 528.652C134.933 525.916 131.405 524.44 127.301 524.44C119.561 524.44 113.801 529.876 113.801 537.4C113.801 544.924 119.561 550.36 127.265 550.36ZM158.749 524.8V535.204H145.717V524.8H141.037V550H145.717V539.2H158.749V550H163.429V524.8H158.749ZM188.325 550H193.221L181.845 524.8H177.237L165.897 550H170.721L173.205 544.168H185.805L188.325 550ZM174.789 540.496L179.505 529.48L184.257 540.496H174.789ZM209.426 523.288V533.152C207.914 531.388 205.718 530.56 203.234 530.56C197.654 530.56 193.514 534.412 193.514 540.388C193.514 546.364 197.654 550.252 203.234 550.252C205.862 550.252 208.094 549.352 209.606 547.516V550H213.926V523.288H209.426ZM203.774 546.4C200.534 546.4 198.05 544.06 198.05 540.388C198.05 536.716 200.534 534.376 203.774 534.376C207.014 534.376 209.498 536.716 209.498 540.388C209.498 544.06 207.014 546.4 203.774 546.4ZM237.165 540.496C237.165 534.484 233.061 530.56 227.445 530.56C221.721 530.56 217.509 534.664 217.509 540.388C217.509 546.112 221.685 550.252 228.129 550.252C231.441 550.252 234.141 549.172 235.869 547.12L233.457 544.348C232.089 545.752 230.397 546.436 228.237 546.436C224.889 546.436 222.549 544.636 222.009 541.828H237.093C237.129 541.396 237.165 540.856 237.165 540.496ZM227.445 534.16C230.397 534.16 232.521 536.068 232.881 538.84H221.973C222.405 536.032 224.529 534.16 227.445 534.16ZM268.776 550L268.74 524.8H264.888L255.06 541.504L245.052 524.8H241.2V550H245.664V533.512L253.944 547.12H256.032L264.312 533.296L264.348 550H268.776ZM286.635 550.36C294.447 550.36 300.207 544.888 300.207 537.4C300.207 529.912 294.447 524.44 286.635 524.44C278.823 524.44 273.063 529.948 273.063 537.4C273.063 544.852 278.823 550.36 286.635 550.36ZM286.635 546.256C281.559 546.256 277.779 542.548 277.779 537.4C277.779 532.252 281.559 528.544 286.635 528.544C291.711 528.544 295.491 532.252 295.491 537.4C295.491 542.548 291.711 546.256 286.635 546.256Z" fill="#2F2D65"/>
<circle cx="185.005" cy="657.005" r="6.5" transform="rotate(0.0461235 185.005 657.005)" fill="#FF8A3D" stroke="white"/>
<circle cx="213.015" cy="657.005" r="6.5" transform="rotate(0.0461235 213.015 657.005)" fill="#706EAE" stroke="white"/>
<circle cx="241.005" cy="657.005" r="6.5" transform="rotate(0.0461235 241.005 657.005)" fill="#706EAE" stroke="white"/>
</svg>
