<svg width="271" height="271" viewBox="0 0 271 271" fill="none" xmlns="http://www.w3.org/2000/svg">
<path d="M198.326 168.34C215.526 168.34 229.469 154.397 229.469 137.197C229.469 119.998 215.526 106.055 198.326 106.055C181.127 106.055 167.184 119.998 167.184 137.197C167.184 154.397 181.127 168.34 198.326 168.34Z" stroke="#5D5D83" stroke-width="4" stroke-miterlimit="10"/>
<path d="M74.7014 168.34C91.901 168.34 105.844 154.397 105.844 137.197C105.844 119.998 91.901 106.055 74.7014 106.055C57.5017 106.055 43.5586 119.998 43.5586 137.197C43.5586 154.397 57.5017 168.34 74.7014 168.34Z" stroke="#5D5D83" stroke-width="4" stroke-miterlimit="10"/>
<path d="M135.514 89.4311C152.38 89.4311 166.052 75.7588 166.052 58.8933C166.052 42.0277 152.38 28.3555 135.514 28.3555C118.649 28.3555 104.977 42.0277 104.977 58.8933C104.977 75.7588 118.649 89.4311 135.514 89.4311Z" stroke="#5D5D83" stroke-width="4" stroke-miterlimit="10"/>
<path d="M135.515 46.9527C140.541 46.9527 144.616 42.8781 144.616 37.8518C144.616 32.8256 140.541 28.751 135.515 28.751C130.489 28.751 126.414 32.8256 126.414 37.8518C126.414 42.8781 130.489 46.9527 135.515 46.9527Z" stroke="#5D5D83" stroke-width="4" stroke-miterlimit="10"/>
<path d="M135.515 89.4048C140.541 89.4048 144.616 85.3302 144.616 80.304C144.616 75.2777 140.541 71.2031 135.515 71.2031C130.489 71.2031 126.414 75.2777 126.414 80.304C126.414 85.3302 130.489 89.4048 135.515 89.4048Z" stroke="#5D5D83" stroke-width="4" stroke-miterlimit="10"/>
<path d="M156.741 68.1783C161.768 68.1783 165.842 64.1037 165.842 59.0774C165.842 54.0511 161.768 49.9766 156.741 49.9766C151.715 49.9766 147.641 54.0511 147.641 59.0774C147.641 64.1037 151.715 68.1783 156.741 68.1783Z" stroke="#5D5D83" stroke-width="4" stroke-miterlimit="10"/>
<path d="M114.263 68.1783C119.289 68.1783 123.364 64.1037 123.364 59.0774C123.364 54.0511 119.289 49.9766 114.263 49.9766C109.237 49.9766 105.162 54.0511 105.162 59.0774C105.162 64.1037 109.237 68.1783 114.263 68.1783Z" stroke="#5D5D83" stroke-width="4" stroke-miterlimit="10"/>
<path d="M135.514 242.25C152.38 242.25 166.052 228.578 166.052 211.713C166.052 194.847 152.38 181.175 135.514 181.175C118.649 181.175 104.977 194.847 104.977 211.713C104.977 228.578 118.649 242.25 135.514 242.25Z" stroke="#5D5D83" stroke-width="4" stroke-miterlimit="10"/>
<path d="M135.515 199.772C140.541 199.772 144.616 195.697 144.616 190.671C144.616 185.645 140.541 181.57 135.515 181.57C130.489 181.57 126.414 185.645 126.414 190.671C126.414 195.697 130.489 199.772 135.515 199.772Z" stroke="#5D5D83" stroke-width="4" stroke-miterlimit="10"/>
<path d="M135.515 242.224C140.541 242.224 144.616 238.15 144.616 233.123C144.616 228.097 140.541 224.022 135.515 224.022C130.489 224.022 126.414 228.097 126.414 233.123C126.414 238.15 130.489 242.224 135.515 242.224Z" stroke="#5D5D83" stroke-width="4" stroke-miterlimit="10"/>
<path d="M156.741 220.998C161.768 220.998 165.842 216.923 165.842 211.897C165.842 206.87 161.768 202.796 156.741 202.796C151.715 202.796 147.641 206.87 147.641 211.897C147.641 216.923 151.715 220.998 156.741 220.998Z" stroke="#5D5D83" stroke-width="4" stroke-miterlimit="10"/>
<path d="M114.263 220.998C119.289 220.998 123.364 216.923 123.364 211.897C123.364 206.87 119.289 202.796 114.263 202.796C109.237 202.796 105.162 206.87 105.162 211.897C105.162 216.923 109.237 220.998 114.263 220.998Z" stroke="#5D5D83" stroke-width="4" stroke-miterlimit="10"/>
<path d="M29.6697 57.3405L20.411 39.7701L40.5065 19.6746L58.8134 28.6176C80.4082 13.0988 106.869 3.97168 135.487 3.97168C164.183 3.97168 190.749 13.1514 212.37 28.7754L230.493 19.6746L250.589 39.7701L241.12 57.1301C257.533 79.0668 267.002 106.001 267.002 135.513C267.002 208.162 208.109 267.081 135.434 267.081C62.7589 267.081 3.94531 208.162 3.94531 135.513C3.94531 106.238 13.5196 79.1983 29.6697 57.3405Z" stroke="#5D5D83" stroke-width="4" stroke-miterlimit="10"/>
</svg>
