<svg width="140" height="140" viewBox="0 0 140 140" fill="none" xmlns="http://www.w3.org/2000/svg">
  <circle cx="70" cy="70" r="70" fill="#E9EEFF"/>
  <circle cx="70" cy="70" r="56" fill="white"/>
  <circle cx="70" cy="70" r="51" fill="#FF833D"/>
  <g id="c" stroke-width="15.1" stroke-linecap="round" stroke-linejoin="round">
    <mask id="m" mask-type="alpha" maskUnits="userSpaceOnUse" x="19" y="19" width="102" height="102">
      <path d="M113.5 70C113.5 94.0244 94.0244 113.5 70 113.5C45.9756 113.5 26.5 94.0244 26.5 70C26.5 45.9756 45.9756 26.5 70 26.5" stroke="url(#g1)"/>
    </mask>
    <g mask="url(#m)">
      <path d="M113.5 70C113.5 94.0244 94.0244 113.5 70 113.5C45.9756 113.5 26.5 94.0244 26.5 70C26.5 45.9756 45.9756 26.5 70 26.5" stroke="url(#g2)"/>
    </g>
  </g>
  <path d="M74.3782 62.2997V64.6975H66.0546V62.8037L70.056 59.0619C70.443 58.6953 70.7026 58.3848 70.835 58.1302C70.9673 57.8655 71.0335 57.6008 71.0335 57.3361C71.0335 56.9899 70.9164 56.7201 70.6822 56.5266C70.448 56.3331 70.107 56.2364 69.659 56.2364C69.2619 56.2364 68.8953 56.3281 68.5593 56.5113C68.2335 56.6844 67.9637 56.939 67.7499 57.275L65.5048 56.0226C65.9222 55.3302 66.5077 54.7855 67.2611 54.3884C68.0146 53.9913 68.9055 53.7928 69.9339 53.7928C70.7484 53.7928 71.4662 53.9251 72.0873 54.1899C72.7186 54.4546 73.2073 54.8364 73.5535 55.3353C73.9099 55.8241 74.088 56.3942 74.088 57.0459C74.088 57.6262 73.9608 58.1761 73.7062 58.6953C73.4619 59.2044 72.9833 59.7848 72.2706 60.4364L70.2546 62.2997H74.3782ZM60.7337 71.0224C61.305 71.0224 61.7632 71.1921 62.1082 71.5314C62.4589 71.8708 62.6343 72.3828 62.6343 73.0672V75.6975H61.0221V73.3302C61.0221 72.7024 60.7704 72.3884 60.267 72.3884C59.9898 72.3884 59.7664 72.4789 59.5967 72.6599C59.4326 72.8409 59.3506 73.1125 59.3506 73.4745V75.6975H57.7385V69.4018H59.3506V71.523C59.526 71.3589 59.7324 71.2345 59.97 71.1496C60.2076 71.0648 60.4621 71.0224 60.7337 71.0224ZM66.0206 75.7739C65.5285 75.7739 65.0844 75.6721 64.6885 75.4684C64.2925 75.2648 63.9814 74.982 63.7551 74.6199C63.5345 74.2579 63.4242 73.8478 63.4242 73.3896C63.4242 72.9371 63.5345 72.5298 63.7551 72.1678C63.9814 71.8058 64.2897 71.5258 64.68 71.3278C65.0759 71.1242 65.5228 71.0224 66.0206 71.0224C66.5184 71.0224 66.9652 71.1242 67.3612 71.3278C67.7572 71.5258 68.0654 71.8058 68.286 72.1678C68.5066 72.5242 68.6169 72.9314 68.6169 73.3896C68.6169 73.8478 68.5066 74.2579 68.286 74.6199C68.0654 74.982 67.7572 75.2648 67.3612 75.4684C66.9652 75.6721 66.5184 75.7739 66.0206 75.7739ZM66.0206 74.4927C66.3034 74.4927 66.5353 74.3965 66.7163 74.2042C66.8974 74.0062 66.9879 73.7347 66.9879 73.3896C66.9879 73.0502 66.8974 72.7844 66.7163 72.5921C66.5353 72.3997 66.3034 72.3036 66.0206 72.3036C65.7378 72.3036 65.5058 72.3997 65.3248 72.5921C65.1438 72.7844 65.0533 73.0502 65.0533 73.3896C65.0533 73.7347 65.1438 74.0062 65.3248 74.2042C65.5058 74.3965 65.7378 74.4927 66.0206 74.4927ZM74.2001 71.0987V75.6975H72.6644V75.2054C72.4947 75.3921 72.291 75.5335 72.0534 75.6296C71.8159 75.7258 71.5641 75.7739 71.2983 75.7739C70.7044 75.7739 70.2292 75.5985 69.8728 75.2478C69.5221 74.8971 69.3468 74.371 69.3468 73.6696V71.0987H70.9589V73.4066C70.9589 73.7517 71.0239 74.0034 71.154 74.1618C71.2841 74.3201 71.4736 74.3993 71.7225 74.3993C71.9771 74.3993 72.1835 74.3117 72.3419 74.1363C72.506 73.9553 72.588 73.6809 72.588 73.3133V71.0987H74.2001ZM76.7743 71.6502C76.9383 71.4409 77.1504 71.2854 77.4106 71.1836C77.6765 71.0761 77.9791 71.0224 78.3185 71.0224V72.4733C78.1714 72.4563 78.0498 72.4478 77.9537 72.4478C77.6086 72.4478 77.3371 72.5411 77.1391 72.7278C76.9468 72.9145 76.8506 73.2001 76.8506 73.5848V75.6975H75.2385V71.0987H76.7743V71.6502ZM80.6636 75.7739C80.2789 75.7739 79.8999 75.7314 79.5266 75.6466C79.1533 75.5561 78.8535 75.4401 78.6272 75.2987L79.1108 74.1957C79.3201 74.3258 79.569 74.4304 79.8575 74.5096C80.146 74.5832 80.4317 74.6199 80.7145 74.6199C80.9747 74.6199 81.1585 74.5945 81.266 74.5436C81.3791 74.487 81.4357 74.4078 81.4357 74.306C81.4357 74.2042 81.3678 74.1335 81.2321 74.0939C81.102 74.0486 80.8927 74.0062 80.6042 73.9666C80.2365 73.9213 79.9226 73.862 79.6624 73.7884C79.4078 73.7149 79.1872 73.5791 79.0005 73.3811C78.8139 73.1832 78.7205 72.906 78.7205 72.5496C78.7205 72.2555 78.8082 71.9953 78.9836 71.769C79.1589 71.5371 79.4135 71.3561 79.7472 71.226C80.0866 71.0902 80.491 71.0224 80.9605 71.0224C81.2943 71.0224 81.6252 71.0563 81.9533 71.1242C82.2814 71.1921 82.5557 71.2882 82.7763 71.4127L82.2927 72.5072C81.8854 72.2809 81.4442 72.1678 80.969 72.1678C80.7145 72.1678 80.5278 72.1989 80.409 72.2611C80.2902 72.3177 80.2308 72.3941 80.2308 72.4902C80.2308 72.5977 80.2959 72.6741 80.426 72.7193C80.5561 72.7589 80.771 72.8013 81.0708 72.8466C81.4498 72.9032 81.7638 72.9682 82.0127 73.0418C82.2616 73.1153 82.4765 73.251 82.6575 73.449C82.8442 73.6413 82.9375 73.9129 82.9375 74.2636C82.9375 74.5521 82.8498 74.8123 82.6745 75.0442C82.4991 75.2704 82.2389 75.4486 81.8939 75.5787C81.5545 75.7088 81.1444 75.7739 80.6636 75.7739ZM58.7018 80.8542H57.9145V80.4809H59.9305V80.8542H59.1431V82.8566H58.7018V80.8542ZM60.4493 81.0443H60.8735V82.8566H60.4493V81.0443ZM60.6631 80.7456C60.5862 80.7456 60.5217 80.7218 60.4696 80.6743C60.4176 80.6245 60.3916 80.5635 60.3916 80.4911C60.3916 80.4186 60.4176 80.3587 60.4696 80.3112C60.5217 80.2614 60.5862 80.2365 60.6631 80.2365C60.74 80.2365 60.8045 80.2603 60.8566 80.3078C60.9086 80.353 60.9346 80.4107 60.9346 80.4809C60.9346 80.5555 60.9086 80.6189 60.8566 80.6709C60.8068 80.7207 60.7423 80.7456 60.6631 80.7456ZM63.9894 81.0239C64.2179 81.0239 64.3989 81.0906 64.5324 81.2241C64.6659 81.3554 64.7326 81.5534 64.7326 81.8181V82.8566H64.3084V81.8724C64.3084 81.714 64.2733 81.5952 64.2032 81.516C64.133 81.4346 64.0324 81.3938 63.9011 81.3938C63.7586 81.3938 63.6443 81.4414 63.5583 81.5364C63.4724 81.6292 63.4294 81.7626 63.4294 81.9369V82.8566H63.0051V81.8724C63.0051 81.714 62.9701 81.5952 62.8999 81.516C62.8298 81.4346 62.7291 81.3938 62.5979 81.3938C62.453 81.3938 62.3377 81.4402 62.2517 81.533C62.168 81.6258 62.1261 81.7604 62.1261 81.9369V82.8566H61.7019V81.0443H62.1057V81.2751C62.1736 81.1936 62.2585 81.1314 62.3603 81.0884C62.4621 81.0454 62.5752 81.0239 62.6997 81.0239C62.8354 81.0239 62.9553 81.0499 63.0594 81.102C63.1658 81.1517 63.2495 81.2264 63.3106 81.326C63.3852 81.2309 63.4814 81.1574 63.5991 81.1054C63.7167 81.0511 63.8468 81.0239 63.9894 81.0239ZM67.2666 81.9606C67.2666 81.99 67.2644 82.0319 67.2598 82.0862H65.8378C65.8627 82.2197 65.9271 82.326 66.0312 82.4052C66.1376 82.4822 66.2688 82.5206 66.4249 82.5206C66.624 82.5206 66.7881 82.455 66.917 82.3238L67.1444 82.5851C67.063 82.6824 66.96 82.7559 66.8356 82.8057C66.7111 82.8555 66.5709 82.8804 66.4147 82.8804C66.2156 82.8804 66.0403 82.8408 65.8887 82.7616C65.7371 82.6824 65.6194 82.5727 65.5357 82.4324C65.4543 82.2898 65.4135 82.1292 65.4135 81.9504C65.4135 81.774 65.4531 81.6156 65.5323 81.4753C65.6138 81.3327 65.7258 81.2219 65.8683 81.1427C66.0109 81.0635 66.1715 81.0239 66.3503 81.0239C66.5267 81.0239 66.684 81.0635 66.822 81.1427C66.9623 81.2196 67.0709 81.3294 67.1478 81.4719C67.227 81.6122 67.2666 81.7751 67.2666 81.9606ZM66.3503 81.3633C66.2145 81.3633 66.0991 81.404 66.0041 81.4855C65.9113 81.5647 65.8547 81.671 65.8344 81.8045H66.8627C66.8446 81.6733 66.7892 81.5669 66.6964 81.4855C66.6037 81.404 66.4883 81.3633 66.3503 81.3633ZM69.9866 82.8804C69.7988 82.8804 69.6303 82.8408 69.4809 82.7616C69.3316 82.6824 69.2151 82.5727 69.1314 82.4324C69.0477 82.2898 69.0058 82.1292 69.0058 81.9504C69.0058 81.7717 69.0477 81.6122 69.1314 81.4719C69.2151 81.3316 69.3305 81.2219 69.4776 81.1427C69.6269 81.0635 69.7966 81.0239 69.9866 81.0239C70.1654 81.0239 70.3215 81.0601 70.455 81.1325C70.5908 81.2049 70.6926 81.309 70.7605 81.4447L70.4346 81.6348C70.3826 81.5511 70.317 81.4889 70.2378 81.4481C70.1609 81.4052 70.076 81.3837 69.9833 81.3837C69.8249 81.3837 69.6936 81.4357 69.5896 81.5398C69.4855 81.6416 69.4334 81.7785 69.4334 81.9504C69.4334 82.1224 69.4843 82.2604 69.5862 82.3645C69.6902 82.4663 69.8226 82.5172 69.9833 82.5172C70.076 82.5172 70.1609 82.4969 70.2378 82.4561C70.317 82.4132 70.3826 82.3498 70.4346 82.2661L70.7605 82.4561C70.6903 82.5919 70.5874 82.6971 70.4516 82.7718C70.3181 82.8442 70.1631 82.8804 69.9866 82.8804ZM72.4105 81.0239C72.639 81.0239 72.8223 81.0906 72.9603 81.2241C73.0983 81.3576 73.1674 81.5556 73.1674 81.8181V82.8566H72.7431V81.8724C72.7431 81.714 72.7058 81.5952 72.6311 81.516C72.5564 81.4346 72.4501 81.3938 72.3121 81.3938C72.156 81.3938 72.0326 81.4414 71.9421 81.5364C71.8516 81.6292 71.8064 81.7638 71.8064 81.9403V82.8566H71.3821V80.3383H71.8064V81.2547C71.8765 81.18 71.9625 81.1235 72.0643 81.085C72.1684 81.0443 72.2838 81.0239 72.4105 81.0239ZM74.6694 81.0239C74.9364 81.0239 75.14 81.0884 75.2803 81.2174C75.4229 81.3441 75.4941 81.5364 75.4941 81.7943V82.8566H75.0936V82.636C75.0416 82.7152 74.9669 82.7763 74.8696 82.8193C74.7746 82.86 74.6592 82.8804 74.5235 82.8804C74.3877 82.8804 74.2689 82.8578 74.1671 82.8125C74.0653 82.765 73.9861 82.7005 73.9295 82.6191C73.8752 82.5353 73.8481 82.4414 73.8481 82.3374C73.8481 82.1744 73.908 82.0443 74.028 81.9471C74.1501 81.8475 74.3413 81.7977 74.6015 81.7977H75.0699V81.7706C75.0699 81.6439 75.0314 81.5466 74.9545 81.4787C74.8798 81.4108 74.7678 81.3769 74.6185 81.3769C74.5167 81.3769 74.416 81.3927 74.3164 81.4244C74.2191 81.4561 74.1366 81.5002 74.0687 81.5567L73.9024 81.2479C73.9974 81.1755 74.1117 81.1201 74.2452 81.0816C74.3787 81.0431 74.5201 81.0239 74.6694 81.0239ZM74.6117 82.5715C74.7181 82.5715 74.812 82.5478 74.8934 82.5003C74.9771 82.4505 75.036 82.3803 75.0699 82.2898V82.0794H74.6321C74.3877 82.0794 74.2655 82.1597 74.2655 82.3204C74.2655 82.3973 74.2961 82.4584 74.3572 82.5037C74.4183 82.5489 74.5031 82.5715 74.6117 82.5715ZM76.714 81.309C76.8362 81.1189 77.0511 81.0239 77.3588 81.0239V81.4278C77.3226 81.421 77.2898 81.4176 77.2604 81.4176C77.0952 81.4176 76.9663 81.4662 76.8735 81.5635C76.7807 81.6586 76.7344 81.7966 76.7344 81.9776V82.8566H76.3101V81.0443H76.714V81.309ZM79.7725 81.0443V82.5817C79.7725 83.2198 79.4466 83.5388 78.795 83.5388C78.6208 83.5388 78.4556 83.5162 78.2995 83.4709C78.1434 83.4279 78.0144 83.3646 77.9126 83.2809L78.1026 82.9618C78.1818 83.0275 78.2814 83.0795 78.4013 83.118C78.5235 83.1587 78.6468 83.1791 78.7712 83.1791C78.9704 83.1791 79.1163 83.1338 79.2091 83.0433C79.3018 82.9528 79.3482 82.8148 79.3482 82.6292V82.5342C79.2758 82.6134 79.1876 82.6734 79.0835 82.7141C78.9794 82.7548 78.8651 82.7752 78.7407 82.7752C78.5687 82.7752 78.4126 82.739 78.2723 82.6666C78.1343 82.5919 78.0246 82.4878 77.9431 82.3543C77.8639 82.2208 77.8243 82.0681 77.8243 81.8961C77.8243 81.7242 77.8639 81.5726 77.9431 81.4414C78.0246 81.3079 78.1343 81.2049 78.2723 81.1325C78.4126 81.0601 78.5687 81.0239 78.7407 81.0239C78.8719 81.0239 78.9907 81.0454 79.0971 81.0884C79.2057 81.1314 79.2962 81.197 79.3686 81.2852V81.0443H79.7725ZM78.8052 82.4154C78.9658 82.4154 79.0971 82.3679 79.1989 82.2729C79.303 82.1756 79.355 82.05 79.355 81.8961C79.355 81.7445 79.303 81.6212 79.1989 81.5262C79.0971 81.4312 78.9658 81.3837 78.8052 81.3837C78.6423 81.3837 78.5088 81.4312 78.4047 81.5262C78.3029 81.6212 78.252 81.7445 78.252 81.8961C78.252 82.05 78.3029 82.1756 78.4047 82.2729C78.5088 82.3679 78.6423 82.4154 78.8052 82.4154ZM82.3055 81.9606C82.3055 81.99 82.3032 82.0319 82.2987 82.0862H80.8766C80.9015 82.2197 80.966 82.326 81.0701 82.4052C81.1764 82.4822 81.3077 82.5206 81.4638 82.5206C81.6629 82.5206 81.8269 82.455 81.9559 82.3238L82.1833 82.5851C82.1018 82.6824 81.9989 82.7559 81.8744 82.8057C81.75 82.8555 81.6097 82.8804 81.4536 82.8804C81.2545 82.8804 81.0791 82.8408 80.9275 82.7616C80.7759 82.6824 80.6583 82.5727 80.5746 82.4324C80.4931 82.2898 80.4524 82.1292 80.4524 81.9504C80.4524 81.774 80.492 81.6156 80.5712 81.4753C80.6526 81.3327 80.7646 81.2219 80.9072 81.1427C81.0497 81.0635 81.2104 81.0239 81.3891 81.0239C81.5656 81.0239 81.7229 81.0635 81.8609 81.1427C82.0012 81.2196 82.1098 81.3294 82.1867 81.4719C82.2659 81.6122 82.3055 81.7751 82.3055 81.9606ZM81.3891 81.3633C81.2534 81.3633 81.138 81.404 81.0429 81.4855C80.9502 81.5647 80.8936 81.671 80.8732 81.8045H81.9016C81.8835 81.6733 81.8281 81.5669 81.7353 81.4855C81.6425 81.404 81.5271 81.3633 81.3891 81.3633Z" fill="white"/>
  <defs>
    <linearGradient id="g1" x1="45.2859" y1="44.4835" x2="94.4734" y2="93.671" gradientUnits="userSpaceOnUse">
      <stop/>
      <stop offset="0.853181" stop-opacity="0"/>
    </linearGradient>
    <linearGradient id="g2" x1="70" y1="26.5" x2="71.1234" y2="121.033" gradientUnits="userSpaceOnUse">
      <stop stop-color="#E9EBF9"/>
      <stop offset="1" stop-color="#E9EBF9" stop-opacity="0"/>
    </linearGradient>
    <style>
      #c {
        transform-origin: center;
        animation: r 2s linear infinite;
      }
      @keyframes r {
        0% { transform: rotate(0turn) }
        to { transform: rotate(1turn) }
      }
    </style>
  </defs>
</svg>
