<svg width="414" height="896" viewBox="0 0 414 896" fill="none" xmlns="http://www.w3.org/2000/svg">
<g clip-path="url(#clip0)">
<rect width="414" height="896" fill="#D4DDFC"/>
<path d="M209.5 22.5L210.5 -3.5L420 -5V899.5H-3L-1.5 535C4.33333 531 16.4 522.5 18 520.5C19.6 518.5 21 511 21.5 507.5L27.5 494.5C30.6667 491.167 36.9 483.4 36.5 479C36.1 474.6 40.6667 459.833 43 453L59 414.5H46L49.5 386.5L35 386L35.5 373L57 373.5V384.5L58 379.5L63 380L62.5 387L65 376.5L69 376C69 376 70.3333 371.5 69 370L65 365.5V344.5H68L65 335L56 321.5L45.5 318H36.5L38.5 315.5H20L27 301.5L40.5 308L44.5 299L49.5 301.5L60 280.5L63.5 281.5L75 255.5L86 261L97 241L99.5 242.5L103.5 235L130 246L136 234L113.5 221.5L121 206L113.5 200.5L123 184.5L143 195C144.333 195.5 147 195.5 147 191.5C147 187.5 149 183.5 150 182C151.845 179.117 155.112 173.95 157.346 170.246L159.5 166.5C161 163.5 160 161 163.5 159.5C166.3 158.3 164.333 154.667 163 153C161.667 150.833 161 146.5 169 146.5C183 146.5 183.833 139.833 182.5 136.5L141 136L141.5 107L187 107.5L186.5 101H189L188.5 93H193.5V81H197.5V37.5L171 36L171.5 24.5L209.5 22.5Z" fill="#F5F5F5"/>
<path d="M413 52.5L387.5 76L365 50L383 17.5L403.5 30L413 52.5Z" fill="#EEEEEE"/>
<path d="M158.5 422L155 420.5L162 404.5L152.5 399.5L158.5 386.5L174 393L158.5 422Z" fill="#EEEEEE"/>
<path d="M90.5 462.5L139.5 488L99 563L56 540.5L31.5 589L-0.5 570.5L56 460.5L84 475L90.5 462.5Z" fill="#EEEEEE"/>
<path d="M197 301L229 317L267.5 240L231.5 220.5L210 264L223 271C222 274.333 219.4 281.1 217 281.5C214.6 281.9 210 291 208 295.5L202 292L197 301Z" fill="#EEEEEE"/>
<path d="M162.5 769.5V732.5C162.333 728.833 161.5 721.1 159.5 719.5" stroke="white" stroke-width="4"/>
<path d="M6 744.5L35.5 756.5C39 757.667 46.7 758.9 49.5 754.5C52.3 750.1 48.6667 746.667 46.5 745.5L14 728.5M300 900V771V398.5L299.5 178.5" stroke="white" stroke-width="4"/>
<path d="M300 616L414.5 615" stroke="white" stroke-width="4"/>
<path d="M300 771C311.833 770.667 338.7 770.2 351.5 771C364.3 771.8 400.5 771.334 417 771" stroke="white" stroke-width="4"/>
<path d="M300 559H415.5" stroke="white" stroke-width="4"/>
<path d="M300 503L416 504M414.5 397.5L300 398.5L249 396.5L213.5 395C211.5 395 207.2 394.8 206 394C204.8 393.2 136.833 359.667 103 343L65.5 323.5" stroke="white" stroke-width="4"/>
<path d="M239 396C228 422.667 204.8 477.2 200 482" stroke="white" stroke-width="4"/>
<path d="M300.5 396L416 176.5" stroke="white" stroke-width="4"/>
<path d="M238 297.5L221.122 287.979C219.675 287.163 219.167 285.327 219.988 283.883L246.126 237.917C246.901 236.554 248.596 236.018 250.014 236.687L265.5 244M274.5 227.5C276.333 229.167 281.7 232.8 288.5 234C295.3 235.2 304.667 237.5 308.5 238.5C311 238.333 326.4 243.8 368 267" stroke="white" stroke-width="4"/>
<path d="M323 244C335.833 223.333 369 165.1 399 97.5" stroke="white" stroke-width="4"/>
<path d="M350 40.4995L368 9.99952C369.667 5.99952 375.9 -0.300478 387.5 6.49952C399.1 13.2995 403 15.6665 403.5 16C407.333 18.6667 415.1 25.4 415.5 31M321.5 24L299.5 69.5C298.167 72 295.5 79.9 295.5 91.5C295.5 103.1 294.5 142.667 294 161" stroke="white" stroke-width="4"/>
<path d="M305.5 166.5L288.5 158.5C286.666 158.167 283 154.8 283 144C283 133.2 283 91.8337 283 72.5003C283.166 70.5003 284 65.3003 286 60.5003C288 55.7003 292.833 47.8336 295 44.5003C296.333 43.0003 297.4 39.1003 291 35.5003C284.6 31.9003 284.333 31.3336 285 31.5003C283.333 31.0002 281 28.2 285 21C289 13.8 291.667 9.66667 292.5 8.5" stroke="white" stroke-width="4"/>
<path d="M93.5 338C83.1667 358.333 62.8 402.4 64 416" stroke="white" stroke-width="4"/>
<path d="M416 124C410.08 112.875 398.923 93.5878 387.213 77M265 -5.5C291.333 7.5 348.3 37.1 365.5 51.5C372.167 57.0818 379.801 66.5001 387.213 77M387.213 77C392.309 68.3333 402.6 49.9 403 45.5C403.4 41.1 406.167 26.3333 407.5 19.5" stroke="white" stroke-width="4"/>
<path d="M-2.5 547.5L11.5 551C13 551.333 16.3 551.3 17.5 548.5C18.7 545.7 26.6667 531.667 30.5 525C32.1667 522.5 35.7 517.3 36.5 516.5C37.3 515.7 44.1667 503.167 47.5 497C49.6667 493.833 54.5 487.3 56.5 486.5C59 485.5 65 475.5 56.5 460.5" stroke="white" stroke-width="4"/>
<path d="M401 898L402 615.5" stroke="white" stroke-width="4"/>
<path d="M352 897.5L351 615" stroke="white" stroke-width="4"/>
<path d="M145.5 901.5V770" stroke="white" stroke-width="4"/>
<path d="M-3 761.5L192 387L305.5 166.5L347 89L365 50.5L395.5 -8.5" stroke="white" stroke-width="4"/>
<path d="M43 899L45 787.5C44.3333 785 44.4 777.6 50 768C55.6 758.4 113.333 644.667 141.5 589C143.167 586 148.3 580.9 155.5 584.5C162.7 588.1 180.5 599.333 188.5 604.5C191.333 606.167 197 614.3 197 633.5C197 652.7 197 820.167 197 901.5" stroke="white" stroke-width="4"/>
<path d="M94.5 905V800C95 797.333 100.5 783 118.5 747C136.5 711 202.667 587.667 233.5 530.5L241 481.5C241.5 478 244 471 250 471C256 471 277.833 469.333 288 468.5V455.5C288.333 453.167 290.3 448.5 295.5 448.5C300.7 448.5 377.333 448.5 415 448.5" stroke="white" stroke-width="4"/>
<path d="M-3 770H197.5" stroke="white" stroke-width="4"/>
<path d="M-2.5 569.5L81.5 413.5L216 142L228 117.5L232.5 107L236 95.4997L243.5 12.4997C245.333 6.833 250.5 -4.40034 256.5 -4.00034" stroke="white" stroke-width="4" stroke-linecap="round" stroke-linejoin="round"/>
<path d="M120.5 453L148.5 468L167.5 432.5L147 423L144 429L133.5 423L120.5 453Z" fill="#EEEEEE"/>
<path d="M202.5 895.5L207 771.5L215.5 729.5L222 700.5L231 689.5" stroke="#F3DBA9" stroke-width="4"/>
<path d="M218.5 894.5L246.5 466L251.5 276.5L255 -6" stroke="#F3DBA9" stroke-width="4"/>
<path d="M300.5 771.5C296 769.667 286.9 761 286.5 741C286.1 721 286.333 672.667 286.5 651L281.5 533L271.5 519" stroke="#F3DBA9" stroke-width="4"/>
<path d="M230 898.5V834C230 830.167 228.8 821 224 815" stroke="#F3DBA9" stroke-width="4"/>
<path d="M247 897L252 645.5L263.5 448.5L267 0.5" stroke="#F3DBA9" stroke-width="4"/>
<path d="M269.5 897.5L271.5 515L274 -0.5" stroke="#F3DBA9" stroke-width="4"/>
</g>
<defs>
<clipPath id="clip0">
<rect width="414" height="896" fill="white"/>
</clipPath>
</defs>
</svg>
