<svg width="140" height="140" viewBox="0 0 140 140" fill="none" xmlns="http://www.w3.org/2000/svg">
  <circle cx="70" cy="70" r="70" fill="#E9EEFF"/>
  <circle cx="70" cy="70" r="56" fill="white"/>
  <circle cx="70" cy="70" r="51" fill="#0BAC72"/>
  <g id="c" stroke-width="15.1" stroke-linecap="round" stroke-linejoin="round">
    <mask id="m" mask-type="alpha" maskUnits="userSpaceOnUse" x="19" y="19" width="102" height="102">
      <path d="M113.5 70C113.5 94.0244 94.0244 113.5 70 113.5C45.9756 113.5 26.5 94.0244 26.5 70C26.5 45.9756 45.9756 26.5 70 26.5" stroke="url(#g1)"/>
    </mask>
    <g mask="url(#m)">
      <path d="M113.5 70C113.5 94.0244 94.0244 113.5 70 113.5C45.9756 113.5 26.5 94.0244 26.5 70C26.5 45.9756 45.9756 26.5 70 26.5" stroke="url(#g2)"/>
    </g>
  </g>
  <path d="M70.1925 62.651H68.6041V64.6975H65.6565V62.651H60.0056V60.6808L64.8012 54.0066H67.9321L63.5794 60.2531H65.7481V58.4357H68.6041V60.2531H70.1925V62.651ZM75.5256 64.9113C74.6093 64.9113 73.7947 64.6924 73.082 64.2546C72.3693 63.8168 71.8093 63.1804 71.402 62.3455C71.0049 61.5004 70.8064 60.5026 70.8064 59.3521C70.8064 58.2015 71.0049 57.2088 71.402 56.3739C71.8093 55.5288 72.3693 54.8873 73.082 54.4495C73.7947 54.0117 74.6093 53.7928 75.5256 53.7928C76.4318 53.7928 77.2413 54.0117 77.954 54.4495C78.6667 54.8873 79.2216 55.5288 79.6187 56.3739C80.026 57.2088 80.2296 58.2015 80.2296 59.3521C80.2296 60.5026 80.026 61.5004 79.6187 62.3455C79.2216 63.1804 78.6667 63.8168 77.954 64.2546C77.2413 64.6924 76.4318 64.9113 75.5256 64.9113ZM75.5256 62.4371C76.0347 62.4371 76.4369 62.1928 76.7322 61.7041C77.0376 61.2051 77.1904 60.4211 77.1904 59.3521C77.1904 58.283 77.0376 57.5041 76.7322 57.0153C76.4369 56.5164 76.0347 56.267 75.5256 56.267C75.0064 56.267 74.594 56.5164 74.2886 57.0153C73.9933 57.5041 73.8456 58.283 73.8456 59.3521C73.8456 60.4211 73.9933 61.2051 74.2886 61.7041C74.594 62.1928 75.0064 62.4371 75.5256 62.4371ZM58.1482 71.0224C58.7139 71.0224 59.1636 71.1921 59.4973 71.5314C59.8367 71.8708 60.0064 72.3828 60.0064 73.0672V75.6975H58.3943V73.3302C58.3943 73.0078 58.332 72.7702 58.2076 72.6175C58.0888 72.4648 57.9191 72.3884 57.6985 72.3884C57.4553 72.3884 57.2601 72.4733 57.113 72.643C56.966 72.8127 56.8924 73.07 56.8924 73.4151V75.6975H55.2803V73.3302C55.2803 72.7024 55.0484 72.3884 54.5846 72.3884C54.3357 72.3884 54.1377 72.4733 53.9906 72.643C53.8436 72.8127 53.77 73.07 53.77 73.4151V75.6975H52.1579V71.0987H53.6937V71.5824C53.8634 71.3957 54.0642 71.2571 54.2961 71.1666C54.5337 71.0704 54.791 71.0224 55.0682 71.0224C55.3906 71.0224 55.6791 71.0818 55.9337 71.2005C56.1882 71.3193 56.3947 71.5003 56.553 71.7436C56.7341 71.5117 56.9631 71.3335 57.2403 71.209C57.5175 71.0846 57.8201 71.0224 58.1482 71.0224ZM61.0239 71.0987H62.636V75.6975H61.0239V71.0987ZM61.83 70.5896C61.5358 70.5896 61.2982 70.5076 61.1172 70.3436C60.9362 70.1795 60.8457 69.9759 60.8457 69.7327C60.8457 69.4894 60.9362 69.2858 61.1172 69.1218C61.2982 68.9577 61.5358 68.8757 61.83 68.8757C62.1241 68.8757 62.3617 68.9549 62.5427 69.1133C62.7237 69.266 62.8142 69.464 62.8142 69.7072C62.8142 69.9618 62.7237 70.1739 62.5427 70.3436C62.3617 70.5076 62.1241 70.5896 61.83 70.5896ZM66.6789 71.0224C67.2502 71.0224 67.7083 71.1921 68.0534 71.5314C68.4041 71.8708 68.5795 72.3828 68.5795 73.0672V75.6975H66.9673V73.3302C66.9673 72.7024 66.7156 72.3884 66.2122 72.3884C65.935 72.3884 65.7116 72.4789 65.5419 72.6599C65.3778 72.8409 65.2958 73.1125 65.2958 73.4745V75.6975H63.6837V71.0987H65.2195V71.5993C65.4005 71.4127 65.6154 71.2712 65.8643 71.1751C66.1132 71.0733 66.3847 71.0224 66.6789 71.0224ZM74.428 71.0987V75.6975H72.8922V75.2054C72.7225 75.3921 72.5189 75.5335 72.2813 75.6296C72.0437 75.7258 71.792 75.7739 71.5262 75.7739C70.9322 75.7739 70.4571 75.5985 70.1007 75.2478C69.75 74.8971 69.5746 74.371 69.5746 73.6696V71.0987H71.1868V73.4066C71.1868 73.7517 71.2518 74.0034 71.3819 74.1618C71.512 74.3201 71.7015 74.3993 71.9504 74.3993C72.2049 74.3993 72.4114 74.3117 72.5698 74.1363C72.7338 73.9553 72.8159 73.6809 72.8159 73.3133V71.0987H74.428ZM78.6397 75.5108C78.5039 75.5957 78.3371 75.6607 78.1391 75.706C77.9468 75.7512 77.7403 75.7739 77.5197 75.7739C76.9201 75.7739 76.4591 75.6268 76.1367 75.3327C75.8142 75.0385 75.653 74.6001 75.653 74.0175V72.4733H74.9827V71.2684H75.653V70.0721H77.2652V71.2684H78.3173V72.4733H77.2652V74.0005C77.2652 74.1646 77.3076 74.2947 77.3924 74.3908C77.4829 74.4813 77.6017 74.5266 77.7488 74.5266C77.9355 74.5266 78.0995 74.4785 78.2409 74.3824L78.6397 75.5108ZM83.8294 73.4066C83.8294 73.4179 83.8209 73.5508 83.8039 73.8054H80.4609C80.5288 74.043 80.6589 74.2268 80.8512 74.3569C81.0492 74.4813 81.2952 74.5436 81.5894 74.5436C81.81 74.5436 81.9995 74.5125 82.1579 74.4502C82.3219 74.388 82.486 74.2862 82.65 74.1448L83.4985 75.0272C83.0516 75.525 82.3983 75.7739 81.5385 75.7739C81.0011 75.7739 80.5288 75.6721 80.1215 75.4684C79.7142 75.2648 79.3975 74.982 79.1712 74.6199C78.9506 74.2579 78.8403 73.8478 78.8403 73.3896C78.8403 72.9371 78.9478 72.5327 79.1627 72.1763C79.3833 71.8143 79.6859 71.5314 80.0706 71.3278C80.4552 71.1242 80.888 71.0224 81.3688 71.0224C81.827 71.0224 82.2427 71.1185 82.6161 71.3108C82.9894 71.4975 83.2835 71.7719 83.4985 72.1339C83.7191 72.4902 83.8294 72.9145 83.8294 73.4066ZM81.3773 72.1678C81.1284 72.1678 80.9191 72.2385 80.7494 72.3799C80.5853 72.5213 80.4807 72.7137 80.4354 72.9569H82.3191C82.2738 72.7137 82.1664 72.5213 81.9967 72.3799C81.8326 72.2385 81.6262 72.1678 81.3773 72.1678ZM86.2442 75.7739C85.8595 75.7739 85.4806 75.7314 85.1072 75.6466C84.7339 75.5561 84.4341 75.4401 84.2078 75.2987L84.6915 74.1957C84.9008 74.3258 85.1496 74.4304 85.4381 74.5096C85.7266 74.5832 86.0123 74.6199 86.2951 74.6199C86.5553 74.6199 86.7391 74.5945 86.8466 74.5436C86.9597 74.487 87.0163 74.4078 87.0163 74.306C87.0163 74.2042 86.9484 74.1335 86.8127 74.0939C86.6826 74.0486 86.4733 74.0062 86.1848 73.9666C85.8171 73.9213 85.5032 73.862 85.243 73.7884C84.9884 73.7149 84.7678 73.5791 84.5812 73.3811C84.3945 73.1832 84.3012 72.906 84.3012 72.5496C84.3012 72.2555 84.3888 71.9953 84.5642 71.769C84.7395 71.5371 84.9941 71.3561 85.3278 71.226C85.6672 71.0902 86.0717 71.0224 86.5412 71.0224C86.8749 71.0224 87.2058 71.0563 87.5339 71.1242C87.862 71.1921 88.1363 71.2882 88.3569 71.4127L87.8733 72.5072C87.466 72.2809 87.0248 72.1678 86.5496 72.1678C86.2951 72.1678 86.1084 72.1989 85.9896 72.2611C85.8709 72.3177 85.8115 72.3941 85.8115 72.4902C85.8115 72.5977 85.8765 72.6741 86.0066 72.7193C86.1367 72.7589 86.3517 72.8013 86.6515 72.8466C87.0305 72.9032 87.3444 72.9682 87.5933 73.0418C87.8422 73.1153 88.0571 73.251 88.2381 73.449C88.4248 73.6413 88.5181 73.9129 88.5181 74.2636C88.5181 74.5521 88.4305 74.8123 88.2551 75.0442C88.0797 75.2704 87.8195 75.4486 87.4745 75.5787C87.1351 75.7088 86.725 75.7739 86.2442 75.7739ZM58.7018 80.8542H57.9145V80.4809H59.9305V80.8542H59.1431V82.8566H58.7018V80.8542ZM60.4493 81.0443H60.8735V82.8566H60.4493V81.0443ZM60.6631 80.7456C60.5862 80.7456 60.5217 80.7218 60.4696 80.6743C60.4176 80.6245 60.3916 80.5635 60.3916 80.4911C60.3916 80.4186 60.4176 80.3587 60.4696 80.3112C60.5217 80.2614 60.5862 80.2365 60.6631 80.2365C60.74 80.2365 60.8045 80.2603 60.8566 80.3078C60.9086 80.353 60.9346 80.4107 60.9346 80.4809C60.9346 80.5555 60.9086 80.6189 60.8566 80.6709C60.8068 80.7207 60.7423 80.7456 60.6631 80.7456ZM63.9894 81.0239C64.2179 81.0239 64.3989 81.0906 64.5324 81.2241C64.6659 81.3554 64.7326 81.5534 64.7326 81.8181V82.8566H64.3084V81.8724C64.3084 81.714 64.2733 81.5952 64.2032 81.516C64.133 81.4346 64.0324 81.3938 63.9011 81.3938C63.7586 81.3938 63.6443 81.4414 63.5583 81.5364C63.4724 81.6292 63.4294 81.7626 63.4294 81.9369V82.8566H63.0051V81.8724C63.0051 81.714 62.9701 81.5952 62.8999 81.516C62.8298 81.4346 62.7291 81.3938 62.5979 81.3938C62.453 81.3938 62.3377 81.4402 62.2517 81.533C62.168 81.6258 62.1261 81.7604 62.1261 81.9369V82.8566H61.7019V81.0443H62.1057V81.2751C62.1736 81.1936 62.2585 81.1314 62.3603 81.0884C62.4621 81.0454 62.5752 81.0239 62.6997 81.0239C62.8354 81.0239 62.9553 81.0499 63.0594 81.102C63.1658 81.1517 63.2495 81.2264 63.3106 81.326C63.3852 81.2309 63.4814 81.1574 63.5991 81.1054C63.7167 81.0511 63.8468 81.0239 63.9894 81.0239ZM67.2666 81.9606C67.2666 81.99 67.2644 82.0319 67.2598 82.0862H65.8378C65.8627 82.2197 65.9271 82.326 66.0312 82.4052C66.1376 82.4822 66.2688 82.5206 66.4249 82.5206C66.624 82.5206 66.7881 82.455 66.917 82.3238L67.1444 82.5851C67.063 82.6824 66.96 82.7559 66.8356 82.8057C66.7111 82.8555 66.5709 82.8804 66.4147 82.8804C66.2156 82.8804 66.0403 82.8408 65.8887 82.7616C65.7371 82.6824 65.6194 82.5727 65.5357 82.4324C65.4543 82.2898 65.4135 82.1292 65.4135 81.9504C65.4135 81.774 65.4531 81.6156 65.5323 81.4753C65.6138 81.3327 65.7258 81.2219 65.8683 81.1427C66.0109 81.0635 66.1715 81.0239 66.3503 81.0239C66.5267 81.0239 66.684 81.0635 66.822 81.1427C66.9623 81.2196 67.0709 81.3294 67.1478 81.4719C67.227 81.6122 67.2666 81.7751 67.2666 81.9606ZM66.3503 81.3633C66.2145 81.3633 66.0991 81.404 66.0041 81.4855C65.9113 81.5647 65.8547 81.671 65.8344 81.8045H66.8627C66.8446 81.6733 66.7892 81.5669 66.6964 81.4855C66.6037 81.404 66.4883 81.3633 66.3503 81.3633ZM69.9866 82.8804C69.7988 82.8804 69.6303 82.8408 69.4809 82.7616C69.3316 82.6824 69.2151 82.5727 69.1314 82.4324C69.0477 82.2898 69.0058 82.1292 69.0058 81.9504C69.0058 81.7717 69.0477 81.6122 69.1314 81.4719C69.2151 81.3316 69.3305 81.2219 69.4776 81.1427C69.6269 81.0635 69.7966 81.0239 69.9866 81.0239C70.1654 81.0239 70.3215 81.0601 70.455 81.1325C70.5908 81.2049 70.6926 81.309 70.7605 81.4447L70.4346 81.6348C70.3826 81.5511 70.317 81.4889 70.2378 81.4481C70.1609 81.4052 70.076 81.3837 69.9833 81.3837C69.8249 81.3837 69.6936 81.4357 69.5896 81.5398C69.4855 81.6416 69.4334 81.7785 69.4334 81.9504C69.4334 82.1224 69.4843 82.2604 69.5862 82.3645C69.6902 82.4663 69.8226 82.5172 69.9833 82.5172C70.076 82.5172 70.1609 82.4969 70.2378 82.4561C70.317 82.4132 70.3826 82.3498 70.4346 82.2661L70.7605 82.4561C70.6903 82.5919 70.5874 82.6971 70.4516 82.7718C70.3181 82.8442 70.1631 82.8804 69.9866 82.8804ZM72.4105 81.0239C72.639 81.0239 72.8223 81.0906 72.9603 81.2241C73.0983 81.3576 73.1674 81.5556 73.1674 81.8181V82.8566H72.7431V81.8724C72.7431 81.714 72.7058 81.5952 72.6311 81.516C72.5564 81.4346 72.4501 81.3938 72.3121 81.3938C72.156 81.3938 72.0326 81.4414 71.9421 81.5364C71.8516 81.6292 71.8064 81.7638 71.8064 81.9403V82.8566H71.3821V80.3383H71.8064V81.2547C71.8765 81.18 71.9625 81.1235 72.0643 81.085C72.1684 81.0443 72.2838 81.0239 72.4105 81.0239ZM74.6694 81.0239C74.9364 81.0239 75.14 81.0884 75.2803 81.2174C75.4229 81.3441 75.4941 81.5364 75.4941 81.7943V82.8566H75.0936V82.636C75.0416 82.7152 74.9669 82.7763 74.8696 82.8193C74.7746 82.86 74.6592 82.8804 74.5235 82.8804C74.3877 82.8804 74.2689 82.8578 74.1671 82.8125C74.0653 82.765 73.9861 82.7005 73.9295 82.6191C73.8752 82.5353 73.8481 82.4414 73.8481 82.3374C73.8481 82.1744 73.908 82.0443 74.028 81.9471C74.1501 81.8475 74.3413 81.7977 74.6015 81.7977H75.0699V81.7706C75.0699 81.6439 75.0314 81.5466 74.9545 81.4787C74.8798 81.4108 74.7678 81.3769 74.6185 81.3769C74.5167 81.3769 74.416 81.3927 74.3164 81.4244C74.2191 81.4561 74.1366 81.5002 74.0687 81.5567L73.9024 81.2479C73.9974 81.1755 74.1117 81.1201 74.2452 81.0816C74.3787 81.0431 74.5201 81.0239 74.6694 81.0239ZM74.6117 82.5715C74.7181 82.5715 74.812 82.5478 74.8934 82.5003C74.9771 82.4505 75.036 82.3803 75.0699 82.2898V82.0794H74.6321C74.3877 82.0794 74.2655 82.1597 74.2655 82.3204C74.2655 82.3973 74.2961 82.4584 74.3572 82.5037C74.4183 82.5489 74.5031 82.5715 74.6117 82.5715ZM76.714 81.309C76.8362 81.1189 77.0511 81.0239 77.3588 81.0239V81.4278C77.3226 81.421 77.2898 81.4176 77.2604 81.4176C77.0952 81.4176 76.9663 81.4662 76.8735 81.5635C76.7807 81.6586 76.7344 81.7966 76.7344 81.9776V82.8566H76.3101V81.0443H76.714V81.309ZM79.7725 81.0443V82.5817C79.7725 83.2198 79.4466 83.5388 78.795 83.5388C78.6208 83.5388 78.4556 83.5162 78.2995 83.4709C78.1434 83.4279 78.0144 83.3646 77.9126 83.2809L78.1026 82.9618C78.1818 83.0275 78.2814 83.0795 78.4013 83.118C78.5235 83.1587 78.6468 83.1791 78.7712 83.1791C78.9704 83.1791 79.1163 83.1338 79.2091 83.0433C79.3018 82.9528 79.3482 82.8148 79.3482 82.6292V82.5342C79.2758 82.6134 79.1876 82.6734 79.0835 82.7141C78.9794 82.7548 78.8651 82.7752 78.7407 82.7752C78.5687 82.7752 78.4126 82.739 78.2723 82.6666C78.1343 82.5919 78.0246 82.4878 77.9431 82.3543C77.8639 82.2208 77.8243 82.0681 77.8243 81.8961C77.8243 81.7242 77.8639 81.5726 77.9431 81.4414C78.0246 81.3079 78.1343 81.2049 78.2723 81.1325C78.4126 81.0601 78.5687 81.0239 78.7407 81.0239C78.8719 81.0239 78.9907 81.0454 79.0971 81.0884C79.2057 81.1314 79.2962 81.197 79.3686 81.2852V81.0443H79.7725ZM78.8052 82.4154C78.9658 82.4154 79.0971 82.3679 79.1989 82.2729C79.303 82.1756 79.355 82.05 79.355 81.8961C79.355 81.7445 79.303 81.6212 79.1989 81.5262C79.0971 81.4312 78.9658 81.3837 78.8052 81.3837C78.6423 81.3837 78.5088 81.4312 78.4047 81.5262C78.3029 81.6212 78.252 81.7445 78.252 81.8961C78.252 82.05 78.3029 82.1756 78.4047 82.2729C78.5088 82.3679 78.6423 82.4154 78.8052 82.4154ZM82.3055 81.9606C82.3055 81.99 82.3032 82.0319 82.2987 82.0862H80.8766C80.9015 82.2197 80.966 82.326 81.0701 82.4052C81.1764 82.4822 81.3077 82.5206 81.4638 82.5206C81.6629 82.5206 81.8269 82.455 81.9559 82.3238L82.1833 82.5851C82.1018 82.6824 81.9989 82.7559 81.8744 82.8057C81.75 82.8555 81.6097 82.8804 81.4536 82.8804C81.2545 82.8804 81.0791 82.8408 80.9275 82.7616C80.7759 82.6824 80.6583 82.5727 80.5746 82.4324C80.4931 82.2898 80.4524 82.1292 80.4524 81.9504C80.4524 81.774 80.492 81.6156 80.5712 81.4753C80.6526 81.3327 80.7646 81.2219 80.9072 81.1427C81.0497 81.0635 81.2104 81.0239 81.3891 81.0239C81.5656 81.0239 81.7229 81.0635 81.8609 81.1427C82.0012 81.2196 82.1098 81.3294 82.1867 81.4719C82.2659 81.6122 82.3055 81.7751 82.3055 81.9606ZM81.3891 81.3633C81.2534 81.3633 81.138 81.404 81.0429 81.4855C80.9502 81.5647 80.8936 81.671 80.8732 81.8045H81.9016C81.8835 81.6733 81.8281 81.5669 81.7353 81.4855C81.6425 81.404 81.5271 81.3633 81.3891 81.3633Z" fill="white"/>
  <defs>
    <linearGradient id="g1" x1="45.2859" y1="44.4835" x2="94.4734" y2="93.671" gradientUnits="userSpaceOnUse">
      <stop/>
      <stop offset="0.853181" stop-opacity="0"/>
    </linearGradient>
    <linearGradient id="g2" x1="70" y1="26.5" x2="71.1234" y2="121.033" gradientUnits="userSpaceOnUse">
      <stop stop-color="#E9EBF9"/>
      <stop offset="1" stop-color="#E9EBF9" stop-opacity="0"/>
    </linearGradient>
    <style>
      #c {
        transform-origin: center;
        animation: r 2s linear infinite;
      }
      @keyframes r {
        0% { transform: rotate(0turn) }
        to { transform: rotate(1turn) }
      }
    </style>
  </defs>
</svg>
