<svg xmlns="http://www.w3.org/2000/svg" viewBox="0 0 311 261" fill="none" stroke="#5D5D83" stroke-width="4">
  <path d="M155.5 2.90141C155.5 2.90141 131.953 2.66928 104.794 4.72942C80.8997 6.55744 54.3763 13.5793 39.5544 23.0386C13.0021 39.955 2.88965 59.86 2.88965 104.806C2.88965 149.752 19.9363 204.128 51.0536 232.39C75.8435 254.877 105.747 257.837 116.9 258.127C119.327 258.185 121.407 256.386 121.638 253.978C121.667 253.572 121.725 253.223 121.783 252.962C123.69 243.184 132.271 235.814 142.557 235.814H155.5M155.501 2.90141C155.501 2.90141 179.048 2.66928 206.207 4.72942C230.102 6.52842 256.625 13.5793 271.447 23.0096C297.999 39.955 308.112 59.831 308.112 104.777C308.112 149.723 291.065 204.099 259.948 232.361C235.158 254.848 205.254 257.808 194.101 258.098C191.675 258.156 189.594 256.357 189.363 253.949C189.334 253.543 189.276 253.194 189.219 252.933C187.312 243.155 178.731 235.785 168.445 235.785H155.501M74.3992 102.256C85.3138 102.256 94.1618 93.3698 94.1618 82.4085C94.1618 71.4473 85.3138 62.5615 74.3992 62.5615C63.4847 62.5615 54.6367 71.4473 54.6367 82.4085C54.6367 93.3698 63.4847 102.256 74.3992 102.256ZM74.3981 131.212C101.238 131.212 122.995 109.361 122.995 82.4067C122.995 55.4524 101.238 33.6016 74.3981 33.6016C47.5586 33.6016 25.8008 55.4524 25.8008 82.4067C25.8008 109.361 47.5586 131.212 74.3981 131.212ZM236.601 102.256C247.516 102.256 256.364 93.3698 256.364 82.4085C256.364 71.4473 247.516 62.5615 236.601 62.5615C225.687 62.5615 216.839 71.4473 216.839 82.4085C216.839 93.3698 225.687 102.256 236.601 102.256ZM236.6 131.212C263.44 131.212 285.198 109.361 285.198 82.4067C285.198 55.4524 263.44 33.6016 236.6 33.6016C209.761 33.6016 188.003 55.4524 188.003 82.4067C188.003 109.361 209.761 131.212 236.6 131.212ZM87.5155 223.599C98.43 223.599 107.278 214.714 107.278 203.752C107.278 192.791 98.43 183.905 87.5155 183.905C76.6009 183.905 67.7529 192.791 67.7529 203.752C67.7529 214.714 76.6009 223.599 87.5155 223.599ZM223.483 223.599C234.398 223.599 243.246 214.714 243.246 203.752C243.246 192.791 234.398 183.905 223.483 183.905C212.569 183.905 203.721 192.791 203.721 203.752C203.721 214.714 212.569 223.599 223.483 223.599ZM155.501 226.5C168.012 226.5 178.153 216.315 178.153 203.752C178.153 191.188 168.012 181.003 155.501 181.003C142.991 181.003 132.85 191.188 132.85 203.752C132.85 216.315 142.991 226.5 155.501 226.5Z"/>
</svg>
