<svg width="220" height="220" viewBox="0 0 220 220" fill="none" xmlns="http://www.w3.org/2000/svg">
  <defs>
    <style>
      .c {
        transform-origin: 110px 26px;
      }
      .c-1 {
        animation: c1 2s ease-out infinite;
      }
      .c-2 {
        animation: c2 1.6s ease-out .3s infinite;
      }
      .c-3 {
        animation: c3 1.5s ease-out .4s infinite;
      }
      .c-4 {
        animation: c4 1.75s ease-out infinite;
      }
      .c-5 {
        animation: c5 1.3s ease-out .5s infinite;
      }
      @keyframes c1 {
        0% { transform: translate(0) }
        to { transform: translate(-75px, -5px) }
      }
      @keyframes c2 {
        0% { transform: translate(0) }
        to { transform: translate(-75px, 60px) }
      }
      @keyframes c3 {
        0% { transform: translate(0) }
        to { transform: translate(75px, 50px) }
      }
      @keyframes c4 {
        0% { transform: translate(0) }
        to { transform: translate(25px, 75px) }
      }
      @keyframes c5 {
        0% { transform: translate(0) }
        to { transform: translate(75px, 0) }
      }
    </style>
  </defs>
  <clipPath id="clip" clipPathUnits="userSpaceOnUse">
    <path d="M185 51.6492C185 76.1435 151.645 96 110.5 96C69.3548 96 36 76.1435 36 51.6492C36 30.9567 59.8042 13.574 92 8.6765C79.6622 12.5292 71 20.1992 71 29.5V48C71 61.0139 88.571 71.4313 110.5 71.4313C132.429 71.4313 150.206 60.8814 150.206 47.8675L150.5 29.5C150.297 20.1852 141.448 12.5236 129 8.6765C161.196 13.574 185 30.9567 185 51.6492Z" />
  </clipPath>
  <path d="M35.983 51.718V171.405H36C36.6714 195.555 69.757 215 110.483 215C151.209 215 184.295 195.546 184.966 171.405H184.983V51.718L150.983 28.5L35.983 51.718Z" fill="#B4C6FB"/>
  <path d="M110.5 111.851C110.5 103.257 104.024 96.1247 95.491 95.0887C61.5385 90.9534 36.0083 73.0704 35.9998 51.6465V171.325H36.0168C36.5777 191.458 59.7246 208.448 91 213.5C101.266 215.156 110.5 206.989 110.5 196.595V111.851ZM110.5 60.9227C110.5 56.6855 107.222 52.9086 103 52.5C87.5 51 70.7939 42.5 70.7939 29.5044V47.8714C70.7939 58.9612 83.6186 68.2678 100.922 70.8153C105.962 71.554 110.492 67.6649 110.492 62.5701V60.9227H110.5Z" fill="#37366B"/>
  <path fill-rule="evenodd" d="M185 51.6492C185 76.1435 151.645 96 110.5 96C69.3548 96 36 76.1435 36 51.6492C36 30.9567 59.8042 13.574 92 8.6765C97 6.93127 104.114 6 110.5 6C116.886 6 123.5 6.93127 129 8.6765C161.196 13.574 185 30.9567 185 51.6492ZM110.5 71.4313C132.429 71.4313 150.206 60.8814 150.206 47.8675L150.5 29.5C150.284 43 132.25 53 111 53C89.7499 53 71 43 71 29.5V48C71 61.0139 88.571 71.4313 110.5 71.4313Z" fill="white"/>
  <path d="M110.5 41.197C120.934 41.197 129.393 35.962 129.393 29.5043C129.393 23.0466 120.934 17.8116 110.5 17.8116C100.066 17.8116 91.6073 23.0466 91.6073 29.5043C91.6073 35.962 100.066 41.197 110.5 41.197Z" fill="#FF9948"/>
  <g clip-path="url(#clip)" fill="#B4C6FB">
    <path d="M110.5 34C114.642 34 118 31.7614 118 29C118 26.2386 114.642 24 110.5 24C106.358 24 103 26.2386 103 29C103 31.7614 106.358 34 110.5 34Z" class="c c-1" />
    <path d="M110.5 33C113.538 33 116 31.433 116 29.5C116 27.567 113.538 26 110.5 26C107.462 26 105 27.567 105 29.5C105 31.433 107.462 33 110.5 33Z" class="c c-2" />
    <path d="M110.564 31.6553C113.084 31.6553 115.128 30.3893 115.128 28.8277C115.128 27.266 113.084 26 110.564 26C108.043 26 106 27.266 106 28.8277C106 30.3893 108.043 31.6553 110.564 31.6553Z" class="c c-3" />
    <path d="M111 32C113.209 32 115 30.8807 115 29.5C115 28.1193 113.209 27 111 27C108.791 27 107 28.1193 107 29.5C107 30.8807 108.791 32 111 32Z" class="c c-4" />
    <path d="M111 32C113.761 32 116 30.6569 116 29C116 27.3431 113.761 26 111 26C108.239 26 106 27.3431 106 29C106 30.6569 108.239 32 111 32Z" class="c c-5"/>
  </g>
</svg>
