<svg width="271" height="278" viewBox="0 0 271 278" fill="none" xmlns="http://www.w3.org/2000/svg">
<path d="M135.514 246.325C153.124 246.325 167.4 232.072 167.4 214.489C167.4 196.907 153.124 182.653 135.514 182.653C117.905 182.653 103.629 196.907 103.629 214.489C103.629 232.072 117.905 246.325 135.514 246.325Z" stroke="#5D5D83" stroke-width="9" stroke-miterlimit="10"/>
<path d="M135.513 84.4564C149.449 84.4564 160.747 73.1764 160.747 59.2619C160.747 45.3474 149.449 34.0674 135.513 34.0674C121.577 34.0674 110.279 45.3474 110.279 59.2619C110.279 73.1764 121.577 84.4564 135.513 84.4564Z" stroke="#5D5D83" stroke-width="9" stroke-miterlimit="10"/>
<path d="M75.8367 166.468C93.4466 166.468 107.722 152.214 107.722 134.632C107.722 117.049 93.4466 102.796 75.8367 102.796C58.2268 102.796 43.9512 117.049 43.9512 134.632C43.9512 152.214 58.2268 166.468 75.8367 166.468Z" stroke="#5D5D83" stroke-width="9" stroke-miterlimit="10"/>
<path d="M195.192 166.468C212.802 166.468 227.078 152.214 227.078 134.632C227.078 117.049 212.802 102.796 195.192 102.796C177.582 102.796 163.307 117.049 163.307 134.632C163.307 152.214 177.582 166.468 195.192 166.468Z" stroke="#5D5D83" stroke-width="9" stroke-miterlimit="10"/>
<path d="M266.96 142.697C266.96 215.189 208.09 273.967 135.486 273.967C62.8819 273.967 4.03906 215.189 4.03906 142.697C4.03906 70.2059 62.9088 11.4277 135.513 11.4277C140.522 11.4277 145.45 11.6966 150.325 12.2613C215.954 19.6018 266.96 75.2072 266.96 142.697Z" stroke="#5D5D83" stroke-width="4" stroke-miterlimit="10"/>
<path d="M119 9.88732C124.198 9.29577 129.476 9 134.835 9C140.113 9 145.338 9.29577 150.482 9.86043" stroke="#5D5D83" stroke-width="4" stroke-miterlimit="10"/>
</svg>
