<svg width="220" height="220" viewBox="0 0 220 220" fill="none" xmlns="http://www.w3.org/2000/svg">
  <defs>
    <style>
      @keyframes blink {
      0% { fill: #FC852D }
      45% { fill: #FC852D }
      55% { fill: #D3DFFF }
      to { fill: #D3DFFF }
      }
    </style>
  </defs>
  <path d="M32 159V41.69L131 94L188 55V68L137 99.5L119 214L32 159Z" fill="#A1B2E5"/>
  <path d="M182.75 64.5L138.79 90.73C126.61 98 111.38 97.82 99.38 90.25L37.07 50.99C33.64 48.83 31.96 45.25 32 41.69C32.04 38.06 33.86 34.45 37.43 32.39L81.32 7.05C93.25 0.160002 108 0.330002 119.77 7.5L182.83 45.89C190 50.5 189.5 59.5 182.75 64.5ZM188 68L131.63 102.24C124.23 106.73 119.95 114.82 119.95 123.48V214.5L188 173V68Z" fill="white"/>
  <path d="M182.75 187.5L138.79 213.73C126.61 221 111.38 220.81 99.38 213.25L37.08 173.99C33.65 171.83 31.97 168.25 32.01 164.69V151C32 154 33 158 37.08 161L99.38 200C113.5 208.812 128.5 207 138.5 201L188 171C188 171 188.04 176.21 188.06 178.04C188.1 181.69 186.33 185.37 182.75 187.5ZM96.2 137.71L50.75 108.95V88.29L96.2 117.05V137.71Z" fill="#434262"/>
  <path d="M141.85 56.29L130.28 48.4L136.05 44.74C137.34 43.95 137.32 42.06 136 41.3L124.41 33.8C100.95 18.78 83.94 33.84 83.94 33.84C77.92 37.24 77.87 47.58 84.51 51.84L102.91 64.37C103.56 64.79 104.38 64.79 105.04 64.39L110.87 60.7L123.72 69.46C124.73 70.15 126.1 69.89 126.79 68.88C127.48 67.87 127.22 66.5 126.21 65.81L114.94 58.12L126.21 50.98L139.36 59.95C140.37 60.64 141.74 60.38 142.43 59.37C143.12 58.36 142.86 56.98 141.85 56.29Z" style="animation: blink 1s linear alternate infinite" />
</svg>
